<mxfile host="app.diagrams.net" modified="2024-02-15T16:22:59.493Z" agent="Mozilla/5.0 (X11; Linux x86_64; rv:122.0) Gecko/20100101 Firefox/122.0" etag="B78nTz7KUklKGKp8rnys" version="23.1.4" type="device">
  <diagram name="Page-1" id="PDquQ0eCX463Cz3V10ha">
    <mxGraphModel dx="1509" dy="799" grid="1" gridSize="10" guides="1" tooltips="1" connect="1" arrows="1" fold="1" page="1" pageScale="1" pageWidth="850" pageHeight="1100" math="0" shadow="0">
      <root>
        <mxCell id="0" />
        <mxCell id="1" parent="0" />
        <mxCell id="Z1XE6XyI9r0x87wrTFJo-2" value="&lt;div&gt;Pipeline&lt;/div&gt;&lt;div&gt;Airflow&lt;br&gt;&lt;/div&gt;" style="edgeStyle=orthogonalEdgeStyle;rounded=0;orthogonalLoop=1;jettySize=auto;html=1;entryX=0;entryY=0.5;entryDx=0;entryDy=0;entryPerimeter=0;" edge="1" parent="1">
          <mxGeometry y="32" relative="1" as="geometry">
            <mxPoint x="380" y="252" as="targetPoint" />
            <mxPoint x="200" y="252" as="sourcePoint" />
            <mxPoint as="offset" />
          </mxGeometry>
        </mxCell>
        <mxCell id="Z1XE6XyI9r0x87wrTFJo-1" value="API NBA" style="rounded=0;whiteSpace=wrap;html=1;" vertex="1" parent="1">
          <mxGeometry x="60" y="175" width="140" height="160" as="geometry" />
        </mxCell>
        <mxCell id="Z1XE6XyI9r0x87wrTFJo-8" style="edgeStyle=orthogonalEdgeStyle;rounded=0;orthogonalLoop=1;jettySize=auto;html=1;entryX=0.5;entryY=0;entryDx=0;entryDy=0;" edge="1" parent="1" source="Z1XE6XyI9r0x87wrTFJo-4" target="Z1XE6XyI9r0x87wrTFJo-7">
          <mxGeometry relative="1" as="geometry" />
        </mxCell>
        <mxCell id="Z1XE6XyI9r0x87wrTFJo-4" value="" style="shape=cylinder3;whiteSpace=wrap;html=1;boundedLbl=1;backgroundOutline=1;size=15;" vertex="1" parent="1">
          <mxGeometry x="380" y="160" width="180" height="190" as="geometry" />
        </mxCell>
        <mxCell id="Z1XE6XyI9r0x87wrTFJo-5" value="" style="shape=image;verticalLabelPosition=bottom;labelBackgroundColor=default;verticalAlign=top;aspect=fixed;imageAspect=0;image=https://www.postgresqltutorial.com/wp-content/uploads/2012/08/What-is-PostgreSQL.png;" vertex="1" parent="1">
          <mxGeometry x="420" y="210" width="92.57" height="72" as="geometry" />
        </mxCell>
        <mxCell id="Z1XE6XyI9r0x87wrTFJo-9" style="rounded=0;orthogonalLoop=1;jettySize=auto;html=1;exitX=0.552;exitY=-0.013;exitDx=0;exitDy=0;exitPerimeter=0;" edge="1" parent="1" source="Z1XE6XyI9r0x87wrTFJo-7" target="Z1XE6XyI9r0x87wrTFJo-4">
          <mxGeometry relative="1" as="geometry" />
        </mxCell>
        <mxCell id="Z1XE6XyI9r0x87wrTFJo-16" style="edgeStyle=orthogonalEdgeStyle;rounded=0;orthogonalLoop=1;jettySize=auto;html=1;entryX=0.5;entryY=0;entryDx=0;entryDy=0;" edge="1" parent="1" source="Z1XE6XyI9r0x87wrTFJo-7" target="Z1XE6XyI9r0x87wrTFJo-18">
          <mxGeometry relative="1" as="geometry">
            <mxPoint x="470" y="590" as="targetPoint" />
          </mxGeometry>
        </mxCell>
        <mxCell id="Z1XE6XyI9r0x87wrTFJo-7" value="" style="shape=image;verticalLabelPosition=bottom;labelBackgroundColor=default;verticalAlign=top;aspect=fixed;imageAspect=0;image=data:image/png,iVBORw0KGgoAAAANSUhEUgAAAXYAAACHCAMAAAA1OYJfAAAAZlBMVEX///8AlogFmIoAkIEAkoMAjn8AkoQAmozR5uOq1M/v+fjl8/HC4NyGxb9is6nO6OWOycIfnpFPraPs+Pdvu7LK5eLb7uyXzce129d/wbn4/fzX7Oql0849ppp5vbVBqJ1YsqhqtaysrqKaAAAJxUlEQVR4nO2c65arqhJGVdB0EnMxbdR4SdLv/5JHKVCBQh3ZnbRjnfr2j73SouIEq4oC9DwSiUQikUgkEolEIpFIJBKJRCKRSCQSiUQikUgkEolEIpFIJBKJRCKRSCQSiUQikUgkEon0jyqrb5eEM8Y3j3td/XVt/j9U3Tac+74ftGr/x/kmPf11nf55FQ8OxAe16JvtX9frHSpb/XUdhE4NN5hL8jyJZ0/e3w4u3bIPVF6pEHe8Oo9XxTk9Xppk077L/ia5/Jzjb6TYYeYyv6YyZWZHH/7FnruZ079C7lI432hL6pfF+XO+GIu6WyaOo7swZJxH/qCIszDJ92ZBX1T8/a95lXCzkz9GzeBvZlr+i/kusV/A/p34nEXhbLmaT95yF6E15PxovJHiZeBvx17Y9sWPxw0xV4c3Y98LnPPYE3nPB37Ygb0lzA5awc9g35oGJgh4Xun9n+VTV5jA/htGZh8twl6oWoR45Kuwt5YoijpzNOoczdjDfgT7ltl+1C9PhtmZ5C6xJ4jm7NMSLcSuOrsfPdHjEvvjmKb3++2eHpsgVC9AlIy4fwL7FYlgeO6Z2ANeuK8B2PleBGaGfqGKy7Bfh1eOWV6yE2Bno35QZnkiz+LP4c8fwL4zY3XhQksbe0fVpR77e7QM+2UwGvyGFZDYDau3laeFQ7f6APYHEq23nd3GHviuwGwd2DNRh0RGM1jIi2Pv4iQwkf1f3o+9tuh2nd3DsAf87LrKGrDfu0K89gR2jnkiB3ZvL7t7b33ejn0XYJ299lDsge/iuhj7AmOPlFiCvWSyl59F4Q1SxIXdyyPdMr0d+yFC4AbdERR76rjMAuzlaZs+22H5ph2T3wuc/W6bXtoSSfNM6+uoCGBnu++RzHNzLslBkI8NF5zYd9Bkjfr9buw7hG0A98OwBy6ws9i/mm5crnxeOyT/sVM11bMtIwvwtkjT8wHsfjgSNxsu6SOYo7A2F+RpXdi9Boy7uua7sedYlwbXgmM/4NeZxR6Hvi5ujQMOzBhEDqHF3h5eBgb2uKsBxOsnUZnQblc39p9I88Pvxp5glh1uh2IH+2NrFntmYm+56E14tAa6UQ9uAXYRPUqiouNHd6sSbuwpvGXKcr0Ze2aPT/swEcUecHzMOW/bO+wRZ52UqdFSfDc1amGtBYEyQxPPY8/EReUZOdzB8h8T2KNPYsdsjBqM4th9dByyAHsQ+pdbHV+v1+LQDwwHvwiGwWfJ+Zpl2Sk+XFg4WGcbe2RAhehR2i3wkKw26+DG/tCb8s3Yn8gAVbnzU//So4d1zWPX5mULyW4wM0fRQaNR/mG3HR5bRjKeM+dQwumqGYVTtavqxg7N+qFIptwg2Rj15KeNSmbp3NEZD4kdm6lBBUHeyIxA73dlfWbjdjHAj47qJ2Rn2JdRyokdUpe8D4/fi/0bST3aCYBUw87RnKrEXpwsOW69BTDKaWqm2dYs9sbgGegYpZzYITvA+lZ/L/YrMv636mTk3fEeKRO/4DLH4q57iydj6skqyKe4Cs9hP4XG6eBUmeFUXdiP0sn3xd+LvbCzXbbpNuw/txxVJ/c0h+vedzGoVMYdsNuxh9Qc9lS7mKeMmFlXHPu3zFyOzn8v9q2F3Y4PM6PMb2EXiUKuYmvg+qptL8WdtPERoDQ6EYa9uvkqTBoa/cPYkUlIM9hBU3svYIdR5Y/6CYUjRyg0gx0chcYYnKQxuQfYo7rq9PUV1+efYXopHLmhD2Nnlge0BlSTvZ2Fppjr3iLYGGKPGzw9r1E7M4O9sS1KiTlVOakX9Y5ntHhDc2qfte2+nT46miHmFPao2lkalyr3RX24p7e6yEzs3/LpWZIjEeo09gr8p37eXc+yCDlXDrS31d6Lz0Yy3O7stvWfiGSm4/brz0ZkIXm3JsiHvEmP3StU0obzoz0PMYn9JtyE0WUqcT2moXNh5/ysv2Qfjdv9o1XC6uzTcfvEKDVOQm497wh7y10dj1hgdPlp7OAoze4Asbhm8BHsXYL5YVm2j45S+/UWGxVgVHZgPzlKdWO/2xlIA7uXNYNf5tF9/OZMYhfO2R5q1RAcjcMb3ba3r96meZ5j5IE+m5PpH1p5Iruzv5iT+VFEIQmpJjwi/f0qmj472XbDkROZxP4UB4PnRRdkt7QJAi2SyfbfO9c44Q8ykMEwd2db9hczkDlQj8LkUBfXuI3cIK6OTLN2SgfwYR9dTmLfqXSmIXWZcVFnKszQH+TbR9iRBOVL+XZJhj1Hb/yJYdhbw9evF/JZz30Ke267jLHGkNeCHZ1d6rEjjYJOyHtz2IGMPiF4dWBvVSjw/fLJKezNJHXtFqvBjlsZid227C/OpV6QCG8Ce79guj9lYsWvzOZgK+vlCGxwmavBjq4ckNgRy/7iygHINuoR3iR2bw/uPZTIJHbMA4qg3U/OiGCmbuSaV4MdXScjsSOd/cV1MpAf0Q9OY5dzW4oQjGHR9aSQBECXq0GGbBR7rQf7DplgArpYZ39xVdgL2OWyF/mGQIbFzhipoJ3h+6NgGcZwcD3Y8TWQHXYsjHlxDaQVUnjz2J98/ORIsgsEs6aO+RFok8EfrQi7d8FtCRbG4EOlTtPYAZq+bmUOe6P5gyc+J+2VYvCLJ6NbgWfuo681YUfWt3fYkQHqy+vbwe1p43QTuzlCr/R8OYQ2Vt5F/t2VpocprGEfwZqwI7s5WuyIZV+0mwOVWvsRm38bsDeX7ThOOSV6P93LK/RViB/C0EMGAFnuKB9NXxGwKuzIJFOKdPYFe5ecr0MjNy4mt+JUZdXpFG+FUe6xl1HE+OUcX7uj8fkhg/FhlHBRV7jndX44bphYfLRHsruaNnCWbNF1Ybd26vn3vdXZl+zUc2LP+kyYyPx1yTDISinswqZwtfAAyaf0ayh51P0nV5mewXq5Nysf+LhdVobdi3U7499So7Mv25fqNv791kVdPfYaSaxE/tgZ5GbmuMv0mnMllqC91Wh3bdiNXdh+Y1qdZbuwpxZa+1jGqif2YzcLe+hXOxhFwkwt/prCCBkbOdBaHXavTMPxZncd+pJvDoiJg4nZpTIPwmFbAW9tOQvDjRoIZIdNOErWch4mlgO/JqGacu72HNSld+zuGk7urcmhYnCfb/gxjz0SF0ZnjX9b/+kLGztYeTe9LanKYYtM8jimt7y46o20FxtoOuuRXNIt2oCn87HbhdNtwhH9AG46+QWPEsrIQBR+zPUhVW7xis7/pjV8T2Y133n5pKpbYnw96U5fT/qIsu3tkvj0rTASiUQikUgkEolEIpFIJBKJRCKRSCQSiUQikUgkEolEIpFIJBKJRCKRSCQSiUQikUgkEon0r+h/ME+DMh4xOlUAAAAASUVORK5CYII=;" vertex="1" parent="1">
          <mxGeometry x="283" y="400" width="374" height="135" as="geometry" />
        </mxCell>
        <mxCell id="Z1XE6XyI9r0x87wrTFJo-14" style="edgeStyle=orthogonalEdgeStyle;rounded=0;orthogonalLoop=1;jettySize=auto;html=1;exitX=0.07;exitY=0.4;exitDx=0;exitDy=0;exitPerimeter=0;entryX=1.006;entryY=0.274;entryDx=0;entryDy=0;entryPerimeter=0;" edge="1" parent="1" source="Z1XE6XyI9r0x87wrTFJo-10" target="Z1XE6XyI9r0x87wrTFJo-4">
          <mxGeometry relative="1" as="geometry">
            <mxPoint x="570" y="212" as="targetPoint" />
          </mxGeometry>
        </mxCell>
        <mxCell id="Z1XE6XyI9r0x87wrTFJo-10" value="&lt;div&gt;Predicter&lt;/div&gt;&lt;div&gt;Python&lt;/div&gt;" style="ellipse;shape=cloud;whiteSpace=wrap;html=1;" vertex="1" parent="1">
          <mxGeometry x="640" y="180" width="120" height="80" as="geometry" />
        </mxCell>
        <mxCell id="Z1XE6XyI9r0x87wrTFJo-12" style="edgeStyle=orthogonalEdgeStyle;rounded=0;orthogonalLoop=1;jettySize=auto;html=1;exitX=1;exitY=0.25;exitDx=0;exitDy=0;entryX=0.55;entryY=0.95;entryDx=0;entryDy=0;entryPerimeter=0;" edge="1" parent="1" source="Z1XE6XyI9r0x87wrTFJo-7" target="Z1XE6XyI9r0x87wrTFJo-10">
          <mxGeometry relative="1" as="geometry" />
        </mxCell>
        <mxCell id="Z1XE6XyI9r0x87wrTFJo-15" style="edgeStyle=orthogonalEdgeStyle;rounded=0;orthogonalLoop=1;jettySize=auto;html=1;entryX=0.108;entryY=0.7;entryDx=0;entryDy=0;entryPerimeter=0;" edge="1" parent="1" target="Z1XE6XyI9r0x87wrTFJo-10">
          <mxGeometry relative="1" as="geometry">
            <mxPoint x="560" y="236" as="sourcePoint" />
          </mxGeometry>
        </mxCell>
        <mxCell id="Z1XE6XyI9r0x87wrTFJo-18" value="" style="shape=image;verticalLabelPosition=bottom;labelBackgroundColor=default;verticalAlign=top;aspect=fixed;imageAspect=0;image=data:image/png,iVBORw0KGgoAAAANSUhEUgAAASIAAACuCAMAAAClZfCTAAAA5FBMVEX///8AvYIAvYM+VGcnPlFAVGglPFDz9fbw+/g9xI9VZ3f7/P0fOExhbnoAwIMAKEASMEZSYW8AunsvRVjFy9CZoqocNktAT2YAw4RLW2oAKUENLUTW2t0XM0hBTWYAuXgAIjzf4uW/6tk8XmpseITs7vCss7m6wcbN7+GHkZuS3L43YGknQlkpwos0dG8zS2AugHPl9vCe4MZVzJ8sg3N61rIgm3kWqX16hY/a9Oqcpa2/xcmvtrtJl4VWYnZKnocRrX4ilHc3aW0ydnBk0KcojXUAEzSw5dGV3L9KyZl81rIAHDoqfmbtAAAOUElEQVR4nO1cCXvSyhou2agQIGwJEELBsohtTdWjVtp7bvXo8Xju//8/d77ZJxmW0kipz7xtaSALzMs33z45OTEwMDAwMDAwMDAwMDAwMDAwMDAwMDAwMDAwMDAwMDAwMDAwMDAwMDAwMDAwMDAwMDB4hjjVYlbOo7r2GlXN0WX9hQ84ssLw7uqFBv/5s5JDrbzmEuVp/uA//6u77NW7g46tIJxarZIGF5Fr2y76wcAb6WrNJeaX+FjbZofbdnRh1TVXvXqWUnTyA1NkqWPpfRy5iBcybiAIHi5n2gtMyCGET/zo2qNPCkMW+Tt7eeCxFYVvLfTxrcyA6m8iW5IjvJkutecvU9cmbFJhcu3oay9DOn7288AjKwyvWuJ7tth46vd4prkuEw3YSoea04cpOcrl4ob+7lUhIpdtvTr42IrCBzrVLHnC9a5HdMw2ExI7nWrOrqVsN5ts9ui6Jy7F/7W+HXxkheFUkh6OunVOB0yVEjxL73InLy65jmYb7jnV1cpcq1+9fYKxFYV3rcwXjsXoS0TYoVONEJB1jsoVpqNtLnKjj3WFILJx9iwNPsPpi5IG1tdIEQ7YzBn+1aWtShEi6UJ3tdLVetfzOeDlmaRV+cz4NLKp9rVtppFT1fBPqKKihxEh+lS32KXEJZ+twWf4pvqPxLbVr0euKwsI+I83ynk3qaSCCFHRX72cm4Ws2fsnGllh+HyWnWUgRlYkW30iJmlHOm14SZmjv/jw+3r+UqXS5ycbW1H4oAtDen9EfODMhUxr0lm1yGYKnVp9d/RHT3Ol1ocnG1lhONWMCwnAuSuFX+Q3nfOT7i75HqquXFcEZ5ZkIZ9pcKbiXUaMsDpChl+yZ0wpsYh/1pf9JgJs8FWnEeHsx5OOrSCc/qyXNGr2a+Sy0Iv72F16SjflARzT19FFXeGY/r540qEVhleSxrbYAzL8LovU+IxqT/AJk5SZOxHnRzTCl/0HFHo8d4PPoNHYFjL8fKoxnlwaqk1TroNY1iS61urqZxycqXh7JmkQi+rbukWsviJJ6S06vHPJwhJpz70anNFr5Q1+edHVZQ1gT3fdnmPAv1rD/z0SnqNLo7bKyUm1wj0Bm4Vpo+9aIfo3906T/jgOJ9oPsRwHg3XpzafH6ZU0xag6Qj8XEUuHcKaQ4Z9fSvEtnW7nkinj6kxn8JcDx4m1RJRtz3H+LjCcW3TvigwOf+TECDHU+xhRr1BW2cMK87hFyoRE+JagCDOkM/id2HH8pu4jDBvr9uyF8jRO4maBHFXfyyqEb5IcrRKISXqaKXEXsrH0FEvIkNbgz0BWQl0qvBs4TlDcRFsgxp3BfPuBO+NVNlQD1O9HPO3K5EnS3nymIYNviTnKNZE2G3sTIiYWmh0V3/HC4vT1HM1oJ+huP3B3fGhZOdfYQqGayEtzL8jNaCgUnOUz+tYagw/fbniTf32CRuTbxY1n4iReGOsNw554yzQQecTq2qpborbB5hbT0WL+nd/X8+ndkqXPxpaRFHntfO3yDimpQF9o2Q/Dml3pbD/sIfinpUgBgTD8YlrxVBoN0UZfJJeIz7Wzf9a8z9R3nEZ+QtVgAhY7pFnR2c7TF8QkWYr3h3O0QhfZrpAi+lp0LsJXXm2y1mdj54FOR1R9z/H6+orm8eBli7pDlpAGC4dq2aBehLDoteijmkgjFK0PzmZg9ivZmdZBxCUaFXVk+KaWQ8gWFGepHmJGnnlJ2LZFb+r5LEGptaH8aiPT5Wf16DJBJvr2lw6vCORytAAw/GrVXqpAAk2fRCJNwobyKzhAcdZhQbw5/rHPsxMa8WeKYKXeHyNOh7BjbBOysVaOI01wJjAMPSesqa9NxsgV0FV8jw00VGNOMv6PDP95pGgfLkzw5JzzY3Ftb60z+ATlPpppbVViVrFGso4SOEcrmTS8BcVZUXcVCW0cnH3hmog7VFvLr6B3EtXBxp7AA+dZtbqhfU5/xsaOu91AirOq1RfFWTk9RDXSeS/rJ2Ah2vwunUbWes3annCtZ91l1m2qzpdzdWzVxbJpp/Z0fYoJnbOS7Wb17qaSOp5dWy4eRRMJ1TIWiuZobcXuu66cjVXN2ZZsLISyXiy/shiIEHY2DpK/Mz5kpZE0ZE1VXvlx4nue7ycDe42/eTNOYhHQVFdJHKIz4JQ4WD7GMCjFWTby+nVkC5sm5lz0V7ZnD8Roe/kVQtmx/PXfJMgPoC+AjGVdSwcJWVOIxLAfeyiM8X3kbzp+cqNrxazWwLdge8pTfIaHz3C84DFOqsbwW8jwZ4pqUjbWyntFW/utsNBILJT7iII+FX8dRW2Foo6HKA4Dr1+xkwQNOdClhTBFHjtnihwNL0natu0H6BTvUaGOmqMldqqEI36eoGWzDZdf8zX811vfo9yAIYtxddCQExbCbqVo8j9ES6PWgfNnK6AryLgQAIUiSC/4QRf81eqwm47jR6Xu5BytpLkveHcfT6S5F6V69rjSbuXXKRrXQDjY4Ew22Pe6jaIyeOcD3hE268O18qk4hSLYdvj7IVX/OCdVLc4y/xH30bJGGsLR6KOue3in8iuEslJGEAbNe3O2UdSN1f2zNO9mnRCKHErRDCmioECvq/oz52Aj1L9G3NgTnyi6kIseuK8IDr/a5T0mvuxMz5Qs2xaKwBz6fXnnQhfQKFKE0+Lr2uv3ATP8chstydHKJg2Cs5yqtnbtje3LcjNHctHgruQWikDVx0q8W236mrqATFFnjDZ3J2AHfGspKVraAHkdyX6jHV3XFW42ZmNzWAXSQMEHiIW92kwRcs29tponWAaaPGZWipKic7Q56UBixLP7RGnfS80Sojy0Y7/VEPknzMEug9cjbNIWiioh8pBVzYOkUFLGFDJFkKIKp4XmIF/ri7MjKcoffe+JchAndAeDT1Bugo4l25gTYZK2UARTVEORt4kibEGDZpFpXzVU46L0lfnYkNKvZ7xGwtXO3xRMjoT40xDVSjXsXSiaSEu7ZkOg28matGotFBQNG+CGB+lqWJjS/tHKUgRT7WPENDVkY61c8Fpq7d5vNeSiA7kRuTq0nSLH6UuwHV9XXlK96wV4mCgwDO2bTkGJu/dS2ZBv4BwtqS2+6al7icl/QL9VGUZdga0hCghkSnahyMPxGf5FoSl6Pt5o9OFdmo0ER2ko7u0WopVQqJYVImz4aSnf/ZTzGq0HLoZZQigLX+gqVquwO1DkxQ0FY0/nXYcyRYikZbuRQBTrxU4hWukDX4clpRV7JOJ3R2DwSXqR7sER/oN6Y28REwNwhsCr6UtD2YGidmdCMcSYaDRMRooA5eGyieNePyyikPBWMudSRYT00Z5bGa+RMPWgxTDVMXGpZ46n5td2UNftHXwcDUUnwNKNB6orLUIhvZY719hG7wsY/tEX3ggiWbWHLoapEeu9SKQQFrCFouajKEIY2mFBLSjrDT/OxmY0OWw/8A2giD/ogGutusbDsZQZIZhBSEedS1Ax/g4NJDldJK6WIsLTB35aLV5yjU3NOzxCjhZ0dWaWWXv0xk5ghi1PkAJVG0XKiDrPVsZ2m4hk9xJCl/ziuBzWShEttxRi+t9TAixZG/XejN7US2rhH/72WAwDeroCBbSBOuKKn5l6uCWiQTXsLQQTle1X30AR+GSDQowaz9HKIlO/d7OLYQgevhgGvkwHCb0zVgdyF4ArKL22GEv9NrjNLdguRhsomhRGEc3Rsqoj4+iTEB2BjeXXNRgG4KTkGxyrULxOxO0Tbn2lJW+FO/SUEU5WTDnNbjv0PCXSbyqU4olWTCTyVsnRMpFSYjM+3/ZYDAOhLCBnXUD1OGF/iJ3g8gpoDEWAUYZMrOd3uTKZdduDlNi4jh3HFbIpUVSuBMFUGMFhO18w3xvvzkReTZDCbb0QptZeq18hfnV09qkLguLHtdXtYmnH2NeTjpmModATt5e3k1l51lm20RENImRtyDyRbKZEETYM/pLI16QLMV1QVBNK9WdWFcnCI/neO2VjcwDzrm9wXI5xnSxoDMAZdkJHYXHYDoDapDFGaCSCwiEOwxwsffJEWwLl6HC/7cRjmN6D4jqZWB/tOpaYJtpvMUy1DePXNjiuHCxhGH7czLiKs5s45LsRETFdcDkLPU65TFF1SY73IORF/xra4uSe+NbS8SPPPusRq1+7Dd9P9I3Ew6kfQIHZT4J0nh9Qp+IFCa4/h0HS5jWfZSMMqQuhWrRODR2PC9ZwfKFd/Z9byoTSAXmNe69+XTXtm3We8mQ+tcN2c3mrH8/kbllJnbQ/XXUkBueVKdUyWaOPjq/ZYZLWup2Cu0Rft5jUUKZEdzZjbeds7EGxwS8qGKw4q6mJsK19DP6vx/oYrXD80DVAKk17x7n6FShyDkPRyU/KiSpAImw70tWveKI5h7kVh7aPVuBYb00kl6F+OfC9stZNtaO9UwGu/Re3vG0z3maYseRFZ61jvTXRMCl42c1G/CM1QErGbIfe2CcETr0VvJJoPXCOVrb60iqRQ32Gh2IB0Zp9uOUAP87UchF9eFD59ZC4W04hoI0LXdO4Be9bmVlGnxznvQi74wDHs+lhvCKCNYb/SA0+SdUluWaRX4sPLaloRlNpDyy/Hg7dcRjG3vSwDPHirBqeHanBr85r0/nh763xTiqHUJr2y8b+vjiVcrR0vu2Xjf2N8fJMnmKA3+XWRMXhPW+AtPYsv/72+JxR18//XoTFQ1lAc5zZ2KcGLs7yGz8fZTb2yQE5Wtq9Zwy+HrCAhuqiI83GPj1esYj/t7kXYfGghv/3uRdh8XhLvKKjzcYeA6A4axmDvwmkOPu8bxT/q4EM/5FmY48HPzfdmsgA8OrsOLOxxwQzzQwMDAwMDAwMDAwMDAwMDAwMDAwMDAwMDAwMDAwMDAwMDAwMDAyy+D8IGRL/zABo7wAAAABJRU5ErkJggg==;" vertex="1" parent="1">
          <mxGeometry x="325" y="600" width="290" height="174" as="geometry" />
        </mxCell>
        <mxCell id="Z1XE6XyI9r0x87wrTFJo-19" style="rounded=0;orthogonalLoop=1;jettySize=auto;html=1;exitX=0.607;exitY=0.007;exitDx=0;exitDy=0;exitPerimeter=0;entryX=0.581;entryY=0.994;entryDx=0;entryDy=0;entryPerimeter=0;" edge="1" parent="1" source="Z1XE6XyI9r0x87wrTFJo-18" target="Z1XE6XyI9r0x87wrTFJo-7">
          <mxGeometry relative="1" as="geometry">
            <mxPoint x="501" y="581" as="sourcePoint" />
            <mxPoint x="500" y="540" as="targetPoint" />
          </mxGeometry>
        </mxCell>
      </root>
    </mxGraphModel>
  </diagram>
</mxfile>
